<svg width="512" height="512" viewBox="0 0 512 512" fill="none" xmlns="http://www.w3.org/2000/svg">
  <defs>
    <linearGradient id="backdrop" x1="0" y1="0" x2="512" y2="512" gradientUnits="userSpaceOnUse">
      <stop offset="0" stop-color="#6BCEFF"/>
      <stop offset="0.55" stop-color="#3A64F2"/>
      <stop offset="1" stop-color="#5B4EFF"/>
    </linearGradient>
    <radialGradient id="glow" cx="0.28" cy="0.22" r="0.9">
      <stop offset="0" stop-color="#FFFFFF" stop-opacity="0.25"/>
      <stop offset="1" stop-color="#FFFFFF" stop-opacity="0"/>
    </radialGradient>
  </defs>
  <rect width="512" height="512" rx="115" fill="url(#backdrop)"/>
  <rect width="512" height="512" rx="115" fill="url(#glow)"/>
  <g transform="translate(256 256) rotate(-8) scale(11.5) translate(-12 -12)" stroke="#FFFFFF" stroke-width="2" stroke-linecap="round" stroke-linejoin="round">
    <path d="M2 9a3 3 0 0 1 0 6v2a2 2 0 0 0 2 2h16a2 2 0 0 0 2-2v-2a3 3 0 0 1 0-6V7a2 2 0 0 0-2-2H4a2 2 0 0 0-2 2Z"/>
    <path d="M9 12h6"/>
    <path d="M12 9v6"/>
  </g>
</svg>
